<svg fill="none" height="22" viewBox="0 0 36 22" width="36" xmlns="http://www.w3.org/2000/svg" xmlns:xlink="http://www.w3.org/1999/xlink"><filter id="a" color-interpolation-filters="sRGB" filterUnits="userSpaceOnUse" height="20.2252" width="35.3246" x=".449463" y=".800293"><feFlood flood-opacity="0" result="BackgroundImageFix"/><feColorMatrix in="SourceAlpha" type="matrix" values="0 0 0 0 0 0 0 0 0 0 0 0 0 0 0 0 0 0 127 0"/><feOffset dy="1"/><feColorMatrix type="matrix" values="0 0 0 0 0 0 0 0 0 0 0 0 0 0 0 0 0 0 0.15 0"/><feBlend in2="BackgroundImageFix" mode="normal" result="effect1_dropShadow"/><feBlend in="SourceGraphic" in2="effect1_dropShadow" mode="normal" result="shape"/></filter><g filter="url(#a)"><path d="m26.4703 10.1146c-3.5142.5125-8.6817 1.5124-6.7162-1.96908-.4774.18405-1.3086.60703-1.4799-.17035-.3539-.04073-.4726.4242-.9067-.90151-1.1571 3.25564-2.332 1.28622-5.8881-4.06661-2.37196-.63183-5.43221-.66518-9.17514.41892.76754.12822 2.11103 1.19986 1.54337 2.45012.51019.09859 4.80686.4337 4.86775 3.86926 2.15942-.07037 4.72532 1.14195 3.55832 3.91785 1.6542.0708 2.4182.7967 2.2375 2.6496.5546-.8531 2.0289-1.2017 3.5473.0495.2178-1.6095 3.0695-2.5968 5.2055-.1981 1.3996-1.1147 3.4956-.6342 6.1503 1.5052.3851-.5138 1.5278-1.3789 2.6963-.4869-.8129-2.5654-2.2498-4.5248-5.6403-7.0679z" fill="#fff"/><path d="m20.1895 8.39133.6852-1.21371-1.3004.50137c-.061.02349-.1138.04494-.1649.06568-.075.03041-.1462.05931-.2338.09096-.1349.04876-.245.07886-.3306.08821-.0308.00338-.0519.00333-.0652.00243-.005-.01207-.0112-.03082-.0173-.05869l-.0768-.34834-.3543-.04079c-.1029-.01184-.1975-.00345-.2711.00893-.0539-.10915-.125-.2865-.2176-.56932l-.4559-1.39195-.4904 1.38011c-.1388.39049-.2705.68092-.3959.88791-.1276.21061-.2287.30134-.291.3373-.0433.02501-.0796.03265-.146.01479-.0865-.02326-.2223-.09263-.4156-.25778-.3891-.33259-.8743-.93189-1.503-1.81905-.5276-.74436-1.1352-1.66033-1.8512-2.73958-.129-.19452-.2616-.39435-.3978-.59944l-.1048-.15773-.183-.04874c-2.47316-.65879-5.62694-.68345-9.44294.42181l.05672.97343c.24711.04128.67213.26706.96808.6281.28005.34164.38447.72114.2024 1.12214l-.26212.57733.62252.1203c.05418.01047.13147.02189.22777.03613.46467.0687 1.37196.20282 2.26097.61068 1.05059.48198 1.94824 1.28925 1.97396 2.74039l.00899.50739.50721-.0165c1.00258-.0327 2.04804.238 2.68924.7751.3116.261.5214.5782.6044.9569.0834.3807.0487.8709-.2125 1.4923l-.2786.6626.7181.0308c.7748.0331 1.2126.217 1.4546.4892.24.2699.3913.7442.3067 1.6123l.9169.321c.3432-.5281 1.4472-.9602 2.81.1629l.693.571.1205-.8898c.0698-.5162.598-1.0476 1.4607-1.1745.827-.1217 1.9104.1575 2.8759 1.2418l.3147.3534.3702-.2948c.5569-.4436 1.2649-.592 2.1759-.3727.9296.2239 2.0502.8293 3.3492 1.8762l.4032.3249.3106-.4144c.1451-.1936.4508-.4687.8204-.5989.3403-.1199.7378-.1223 1.1725.2095l1.2582.9604-.4782-1.5089c-.8538-2.6942-2.3718-4.7327-5.817-7.31674l-.1663-.12479-.2058.03001c-.2352.03429-.4754.07031-.7185.10675-1.6145.24207-3.3542.50287-4.5817.40277-.3451-.0281-.6226-.0835-.831-.163-.208-.0793-.3172-.17065-.373-.25302-.0918-.13538-.1773-.48453.2955-1.32205zm-1.3998-.44625c0 .00013-.001-.00089-.0025-.00346.0018.00204.0026.00333.0025.00346zm-.8895-.42132c-.0041.00081-.006.00104-.0059.00095s.0022-.00049.0059-.00095zm.2242.07356c0 .00002-.0003-.00036-.001-.00117z" stroke="#000"/></g></svg>