<svg fill="none" height="22" viewBox="0 0 30 22" width="30" xmlns="http://www.w3.org/2000/svg" xmlns:xlink="http://www.w3.org/1999/xlink"><filter id="a" color-interpolation-filters="sRGB" filterUnits="userSpaceOnUse" height="20.8124" width="29.2918" x=".094482" y=".344238"><feFlood flood-opacity="0" result="BackgroundImageFix"/><feColorMatrix in="SourceAlpha" type="matrix" values="0 0 0 0 0 0 0 0 0 0 0 0 0 0 0 0 0 0 127 0"/><feOffset dy=".770811"/><feColorMatrix type="matrix" values="0 0 0 0 0 0 0 0 0 0 0 0 0 0 0 0 0 0 0.15 0"/><feBlend in2="BackgroundImageFix" mode="normal" result="effect1_dropShadow"/><feBlend in="SourceGraphic" in2="effect1_dropShadow" mode="normal" result="shape"/></filter><g filter="url(#a)"><path d="m27.4414 6.59222c.1333-.59033-3.0597-5.963459-12.1092-4.63098-1.9204-1.579977-5.38774-1.307569-5.2277-.980677.6935.490337 1.8137.980677 1.9204 2.124807-2.82727 1.57998-6.61471 6.15647-7.30819 12.96673-1.82913.1635-3.947482 2.2883-4.160859 2.8331s.053344.7627.426754.4903c2.507185-1.5255 5.121055-1.4165 6.187945.2724.26672.5448.74682.3269.74682 0-.05335-.7082.10669-2.2882-1.60033-3.3234 2.66721-5.1758 5.60116-7.573 11.84246-8.28126.2489.30873.5227 1.29667-.3734 2.77856-.1601.218-.3094.6647.3734.7083 1.0491-.0545 3.1473-.8281 3.1473-3.48686 2.1338.56661 5.6545.41769 7.1481.27241.2134-.10897.6188-.35959.5335-.49034-.2134-.56662-1.1203-1.07148-1.547-1.25309z" fill="#fff"/><path d="m27.4414 6.59222c.1333-.59033-3.0597-5.963459-12.1092-4.63098-1.9204-1.579977-5.38774-1.307569-5.2277-.980677.6935.490337 1.8137.980677 1.9204 2.124807-2.82727 1.57998-6.61471 6.15647-7.30819 12.96673-1.82913.1635-3.947482 2.2883-4.160859 2.8331s.053344.7627.426754.4903c2.507185-1.5255 5.121055-1.4165 6.187945.2724.26672.5448.74682.3269.74682 0-.05335-.7082.10669-2.2882-1.60033-3.3234 2.66721-5.1758 5.60116-7.573 11.84246-8.28126.2489.30873.5227 1.29667-.3734 2.77856-.1601.218-.3094.6647.3734.7083 1.0491-.0545 3.1473-.8281 3.1473-3.48686 2.1338.56661 5.6545.41769 7.1481.27241.2134-.10897.6188-.35959.5335-.49034-.2134-.56662-1.1203-1.07148-1.547-1.25309z" stroke="#000" stroke-width=".770811"/></g></svg>