<svg fill="none" height="23" viewBox="0 0 26 23" width="26" xmlns="http://www.w3.org/2000/svg" xmlns:xlink="http://www.w3.org/1999/xlink"><filter id="a" color-interpolation-filters="sRGB" filterUnits="userSpaceOnUse" height="21.9422" width="25.6196" x=".031982" y=".557617"><feFlood flood-opacity="0" result="BackgroundImageFix"/><feColorMatrix in="SourceAlpha" type="matrix" values="0 0 0 0 0 0 0 0 0 0 0 0 0 0 0 0 0 0 127 0"/><feOffset dy="1"/><feColorMatrix type="matrix" values="0 0 0 0 0 0 0 0 0 0 0 0 0 0 0 0 0 0 0.15 0"/><feBlend in2="BackgroundImageFix" mode="normal" result="effect1_dropShadow"/><feBlend in="SourceGraphic" in2="effect1_dropShadow" mode="normal" result="shape"/></filter><g filter="url(#a)"><path d="m18.0257 8.53108c.4247-1.7462-3.2561-4.43581 0-7.1259 2.2653-1.4342889 3.3627 1.9474 7.1258 3.30362l.0001.61343c-5.8045-2.50111-6.2292.18877-4.5303 1.32135 3.1492 1.946 3.829 4.36592 3.7753 5.33252-.3775 4.5304-5.2051 5.5701-6.7954 5.9461v1.5101l2.6898.2831-.8023 1.227-3.4921-.7079c.0157-.4876.0377-1.6328 0-2.3123-.8023-.2832-10.05167 1.8876-15.14828 0 1.09483-1.3969 2.5955-2.2494 3.20898-2.5011-.06292-.1259-.38697-.4625-1.17977-.8023 9.39097-6.65388 14.72347-4.3415 15.14817-6.08772z" fill="#fff"/><path d="m18.0257 8.53108c.4247-1.7462-3.2561-4.43581 0-7.1259 2.2653-1.4342889 3.3627 1.9474 7.1258 3.30362l.0001.61343c-5.8045-2.50111-6.2292.18877-4.5303 1.32135 3.1492 1.946 3.829 4.36592 3.7753 5.33252-.3775 4.5304-5.2051 5.5701-6.7954 5.9461v1.5101l2.6898.2831-.8023 1.227-3.4921-.7079c.0157-.4876.0377-1.6328 0-2.3123-.8023-.2832-10.05167 1.8876-15.14828 0 1.09483-1.3969 2.5955-2.2494 3.20898-2.5011-.06292-.1259-.38697-.4625-1.17977-.8023 9.39097-6.65388 14.72347-4.3415 15.14817-6.08772z" stroke="#000"/></g></svg>