<svg fill="none" height="27" viewBox="0 0 25 27" width="25" xmlns="http://www.w3.org/2000/svg" xmlns:xlink="http://www.w3.org/1999/xlink"><filter id="a" color-interpolation-filters="sRGB" filterUnits="userSpaceOnUse" height="25.9426" width="24.3169" x=".391357" y=".170898"><feFlood flood-opacity="0" result="BackgroundImageFix"/><feColorMatrix in="SourceAlpha" type="matrix" values="0 0 0 0 0 0 0 0 0 0 0 0 0 0 0 0 0 0 127 0"/><feOffset dy="1"/><feColorMatrix type="matrix" values="0 0 0 0 0 0 0 0 0 0 0 0 0 0 0 0 0 0 0.15 0"/><feBlend in2="BackgroundImageFix" mode="normal" result="effect1_dropShadow"/><feBlend in="SourceGraphic" in2="effect1_dropShadow" mode="normal" result="shape"/></filter><g filter="url(#a)"><path d="m16.1537 24.0189-2.5892-.4994v-10.7657c.0908-.3482.6269-1.1355 2.0441-1.4989 1.7716-.4542 3.9519.3634 4.9512-.3179 2.7709-1.54439 1.4536-3.67939 0-5.85974-1.4535-2.18035.0455-2.40747 1.0902-1.54442 2.3984.25438 2.0895 2.22578 1.6353 3.17968.6965-.68136 1.6716-2.3893 0-3.77019-.1817-.54509-.7722-2.271432-2.135-2.271432-3.1342.363392-3.3614 3.088832-2.1803 5.314612 1.181 2.22577.8177 2.99821-.3179 2.86194-.4997-4.17901-6.4502-7.4495-17.760815 2.08955v2.7252c2.816285-3.1343 7.328655-2.9323 11.325915-1.1154v11.2651l.7929.7647z" fill="#fff"/><path d="m16.1537 24.0189-2.5892-.4994v-10.7657c.0908-.3482.6269-1.1355 2.0441-1.4989 1.7716-.4542 3.9519.3634 4.9512-.3179 2.7709-1.54439 1.4536-3.67939 0-5.85974-1.4535-2.18035.0455-2.40747 1.0902-1.54442 2.3984.25438 2.0895 2.22578 1.6353 3.17968.6965-.68136 1.6716-2.3893 0-3.77019-.1817-.54509-.7722-2.271432-2.135-2.271432-3.1342.363392-3.3614 3.088832-2.1803 5.314612 1.181 2.22577.8177 2.99821-.3179 2.86194-.4997-4.17901-6.4502-7.4495-17.760815 2.08955v2.7252c2.816285-3.1343 7.328655-2.9323 11.325915-1.1154v11.2651l.7929.7647z" stroke="#000"/></g></svg>