<svg fill="none" height="27" viewBox="0 0 17 27" width="17" xmlns="http://www.w3.org/2000/svg" xmlns:xlink="http://www.w3.org/1999/xlink"><filter id="a" color-interpolation-filters="sRGB" filterUnits="userSpaceOnUse" height="25.876" width="16.6308" x=".282959" y=".245605"><feFlood flood-opacity="0" result="BackgroundImageFix"/><feColorMatrix in="SourceAlpha" type="matrix" values="0 0 0 0 0 0 0 0 0 0 0 0 0 0 0 0 0 0 127 0"/><feOffset dy="1"/><feColorMatrix type="matrix" values="0 0 0 0 0 0 0 0 0 0 0 0 0 0 0 0 0 0 0.15 0"/><feBlend in2="BackgroundImageFix" mode="normal" result="effect1_dropShadow"/><feBlend in="SourceGraphic" in2="effect1_dropShadow" mode="normal" result="shape"/></filter><g filter="url(#a)"><path d="m16.4138 1.68496v-.42207c-.2814 0-4.222-.844522-5.77-.375417-5.02881 1.801367-6.37983 8.975537-6.42674 12.337427.14073.1251-.28147.9945-3.0961 3.4714.40656.2502 1.6794.5066 3.51829-.4691 1.57619 4.9913-.65675 7.2711-1.97024 7.7871l.8913.563c.62547-.1877 2.06406-.6849 2.81463-1.1728 1.57619-1.276 2.43935.0938 2.6739.9382 1.40736-.0625 4.50336-.2158 5.62926-.3284-.7975-.2345-1.1728-.6567-2.8615-.6098-.047-5.4416 2.4393-6.4736 3.3306-11.4462.8913-4.97246-2.5332-7.78709-2.2048-8.86603.3378-1.3135 2.455-1.4855 3.4714-1.40731z" fill="#fff"/><path d="m16.4138 1.68496v-.42207c-.2814 0-4.222-.844522-5.77-.375417-5.02881 1.801367-6.37983 8.975537-6.42674 12.337427.14073.1251-.28147.9945-3.0961 3.4714.40656.2502 1.6794.5066 3.51829-.4691 1.57619 4.9913-.65675 7.2711-1.97024 7.7871l.8913.563c.62547-.1877 2.06406-.6849 2.81463-1.1728 1.57619-1.276 2.43935.0938 2.6739.9382 1.40736-.0625 4.50336-.2158 5.62926-.3284-.7975-.2345-1.1728-.6567-2.8615-.6098-.047-5.4416 2.4393-6.4736 3.3306-11.4462.8913-4.97246-2.5332-7.78709-2.2048-8.86603.3378-1.3135 2.455-1.4855 3.4714-1.40731z" stroke="#000"/></g><g fill="#000"><path d="m14.2642 6.02963c-1.2598 4.79357-5.84871 8.44817-9.28449 10.50677h-3.17283c.58952-.6849 1.96099-2.2732 2.73079-3.147.78013-8.79014 3.22476-13.835508 9.72653-11.96287-3.0584 1.26912-1.2301 3.68943 0 4.6031z"/><path d="m11.9016 11.4082c-1.96754 2.4991-4.76244 3.8593-6.9576 5.1745 1.06107 3.2522-.8401 6.8161-1.94107 7.7296.54614-.0087 2.22097-.3537 4.55117-1.6645l1.32634 1.1703 1.56036.6762c0-.1213-.0468-.6189-.234-1.6384-.49415-2.2106 1.6948-8.7957 1.6948-11.4477z"/></g></svg>