<svg fill="none" height="27" viewBox="0 0 27 27" width="27" xmlns="http://www.w3.org/2000/svg"><path d="m25.5273 2.72416c-3.0702 1.7575-5.7252-.41353-6.5287-1.860879-.4009.106677-.8782 1.561979-.904 3.618379-.7232 2.15036-.3013 3.37716 0 3.72177-2.511 2.88877-4.892.45329-9.1402 5.37587-1.63684 1.8967-1.80795 5.3759-1.50663 8.6841 0 .1379-.12053.4963-.60265.8271-2.81238-.4135-2.81238-4.192-.90398-6.3063 3.91907-4.3421.7031-11.16533-3.41502-10.23489-1.50664.41353-2.008847 2.37779-.90398 1.96426 3.41502-1.24058 5.22298 4.52693 2.81265 6.96243-3.896723 3.4096-1.94836 8.2805-.40205 9.5787 2.51484 2.1114 12.35436 1.1373 13.55966.8271.4821-1.1579-1.1383-1.6541-2.0088-1.7575.4352-.3791 1.3861-1.1992 1.7075-1.4473.6026 1.2405 1.0044 3.515 2.0088 3.515 1.0045 0 1.0045-.3102 1.9084-.8271-1.1866-1.6084-1.9753-4.4799-1.607-5.4793 1.3057-3.2048 4.6203-4.8589 3.8168-10.54497 1.4463-.74435 1.607-2.99809 1.5066-4.03191.2344-.41353.6026-2.00999.6026-2.58456z" fill="#fff"/><path d="m18.9986.863281-.1286-.483187c.2214-.058912.4546.040187.5658.240492zm6.5287 1.860879-.2484-.43393c.1548-.08858.345-.08805.4992.00138.1543.08944.2492.25425.2492.43255zm-.6026 2.58456-.4977.04835c-.0099-.1024.012-.20537.0627-.29488zm-1.5066 4.03191-.4951.06997c-.0298-.21071.077-.41717.2663-.51455zm-3.8168 10.54497-.4692-.1729.0029-.0079.0032-.0078zm1.607 5.4793.4024-.2969c.0847.1149.1163.2604.0869.4001-.0295.1396-.1172.26-.2411.3308zm-3.9172-2.6879-.3055-.3958.4866-.3757.2686.553zm-1.7075 1.4473-.059.4965-1.1197-.133.8503-.7405zm2.0088 1.7575.4616.1922-.0957.23-.2413.062zm-13.55966-.8271-.3215.383zm.40205-9.5787.35538.3517c-.00842.0085-.01713.0167-.02613.0246zm-2.81265-6.96243-.17528-.46829.00456-.00166zm.90398-1.96426-.13235-.48217.01102-.00302.01113-.00252zm3.41502 10.23489-.37117-.3351zm.90398 6.3063.2829.4123c-.10393.0713-.23094.1007-.35564.0824zm.60265-.8271.49794-.0453c.00138.015.00206.0302.00206.0453zm1.50663-8.6841-.37853-.3267zm9.1402-5.37587.3764-.32913c.1645.18805.1649.46862.001.65715zm0-3.72177.5.00626c-.0007.05208-.0094.10375-.0261.15313zm1.3412-3.861074c.3515.633204 1.1356 1.459404 2.1782 1.917134 1.0188.44728 2.2818.54425 3.6649-.24749l.4968.86787c-1.6871.96575-3.2866.85596-4.5637.29526-1.2534-.55025-2.1985-1.53324-2.6505-2.34738zm6.5915 2.103574c0 .34991-.1047.9419-.2264 1.46577-.0627.27026-.1338.53877-.2058.7699-.0683.21967-.1483.44169-.2354.59542l-.87-.49306c.03-.05303.084-.18564.1506-.39957.063-.20247.128-.44652.1866-.69889.121-.52138.2004-1.0149.2004-1.23957zm-.605 2.53621c.0548.56386.039 1.44699-.1876 2.30106-.2242.84505-.682 1.7576-1.5878 2.22378l-.4576-.88916c.5405-.27817.8862-.86467 1.0788-1.59102.1903-.71735.2046-1.47799.1589-1.94796zm-1.5092 4.0103c.4194 2.96773-.2397 4.91533-1.1808 6.52523-.4587.7847-.9911 1.4986-1.46 2.1746-.4769.6876-.903 1.3552-1.208 2.1038l-.9261-.3773c.3479-.8539.8258-1.5948 1.3125-2.2965.4947-.7132.9856-1.3691 1.4183-2.1093.8417-1.4398 1.4381-3.1623 1.054-5.8806zm-3.8427 10.78783c-.0529.1437-.081.4203-.0425.8321.0372.397.131.8687.2744 1.3684.2883 1.005.7602 2.0661 1.3084 2.809l-.8047.5937c-.6385-.8654-1.1543-2.0443-1.4649-3.1269-.1561-.5442-.2646-1.0783-.3088-1.551-.0429-.458-.0314-.915.0998-1.2711zm1.3861 5.7404c-.2061.1179-.3607.2238-.4963.3205-.1276.0909-.2701.1975-.4125.2824-.3348.1995-.6804.2902-1.2478.2902v-1c.4371 0 .5937-.0645.7359-.1493.0962-.0573.186-.1251.3441-.2377.1499-.1069.3343-.2335.5802-.3742zm-2.1566.8931c-.4638 0-.8055-.2687-1.0414-.5602-.2346-.2897-.4198-.6665-.5752-1.0399-.1572-.3774-.3011-.7949-.4363-1.1746-.1389-.3897-.2686-.7398-.4057-1.0219l.8995-.4369c.1644.3382.3108.7376.4482 1.1233.141.3957.2732.7793.4174 1.1257.1459.3503.2871.6195.4293.7951.1407.1737.2258.1894.2642.1894zm-1.7033-3.6193c-.3067.2368-1.244 1.0449-1.6846 1.4287l-.6568-.7541c.4298-.3744 1.3943-1.2067 1.7304-1.4661zm-1.9541.5551c.4715.056 1.1756.2191 1.7165.5551.273.1695.5453.4082.699.7402.1628.3514.1645.7463-.004 1.1509l-.9232-.3844c.0726-.1744.0525-.2757.0199-.3462-.0417-.09-.1385-.1988-.3192-.311-.3664-.2275-.9078-.3642-1.3069-.4116zm2.0745 2.7382c-.3462.0891-1.2259.2107-2.3532.3123-1.1427.103-2.5784.1887-4.057.198-1.47615.0093-3.00887-.0574-4.3405-.2639-1.30733-.2026-2.51394-.5525-3.25506-1.1747l.643-.7659c.51631.4335 1.48271.7536 2.76525.9524 1.25825.1951 2.73227.2613 4.18101.2522 1.4463-.0091 2.8537-.0931 3.9735-.194 1.1352-.1024 1.9374-.2188 2.1938-.2848zm-14.00576-.9283c-.89003-.7473-1.81145-2.418-2.01578-4.3274-.20815-1.9451.32263-4.1841 2.41007-6.0106l.65851.7526c-1.80928 1.5831-2.25268 3.4843-2.07425 5.1516.18225 1.7031 1.00817 3.1169 1.66445 3.6679zm.36816-10.3134c1.02655-1.0373 1.19883-2.8628.66358-4.3374-.2634-.7257-.67888-1.3049-1.17728-1.63411-.47973-.31689-1.06748-.4255-1.77284-.16926l-.34144-.93991c1.00215-.36405 1.92103-.21695 2.66544.27477.72575.47939 1.25193 1.26169 1.56611 2.12731.6199 1.7078.49099 3.9838-.8928 5.382zm-2.282-6.14245c-.18641.06977-.39251.11062-.59816.07612-.222763-.03737-.413458-.15925-.535013-.34923-.213771-.33412-.142883-.74868-.040163-1.03565.224041-.62592.841056-1.35106 1.769706-1.60595l.26469.96434c-.57798.15864-.96539.62239-1.09289.97861-.07306.20409-.01472.22891-.059.15971-.03681-.05753-.09724-.09056-.14188-.09805-.02752-.00462-.00762.00716.08218-.02645zm.61852-2.92025c2.39931-.54209 4.42151 1.19287 5.29768 3.44679.88777 2.28371.70169 5.28081-1.40129 7.61081l-.74234-.6701c1.81609-2.0121 1.98157-4.5976 1.21158-6.57839-.78158-2.0106-2.42643-3.22204-4.14524-2.83369zm3.89639 11.0576c-.86398.9572-1.29163 2.2939-1.19147 3.4113.04963.5537.22612 1.0288.51464 1.3802.28283.3445.69594.5989 1.28238.6851l-.14548.9894c-.81975-.1206-1.46127-.4936-1.9098-1.0399-.44281-.5394-.67438-1.2186-.73774-1.9255-.12584-1.4038.40071-3.0135 1.44513-4.1707zm.24992 5.559c.18697-.1283.28699-.2501.33817-.334.05772-.0946.04737-.129.04737-.0808h1c0 .3473-.24324.8438-.81975 1.2394zm.38761-.3694c-.1525-1.6743-.18776-3.4127.02913-4.9851.21593-1.5655.68882-3.0188 1.5969-4.0711l.75706.6534c-.72875.8444-1.15984 2.079-1.36334 3.5543-.20255 1.4685-.17271 3.1238-.02388 4.7578zm1.62603-9.0562c2.19973-2.5488 3.95103-3.2191 5.47643-3.6084 1.4927-.38095 2.5335-.46717 3.665-1.7688l.7547.65605c-1.3796 1.58715-2.7848 1.72755-4.1724 2.08165-1.3549.3458-2.9181.9192-4.96667 3.2929zm9.14233-4.72005c-.245-.28021-.4479-.78956-.506-1.47038-.0594-.69683.0285-1.61007.4085-2.73989l.9478.31877c-.3432 1.02053-.4059 1.79587-.3599 2.33618.0475.55632.2061.83267.2624.89707zm-.1235-4.05714c.0133-1.06204.143-1.98302.3288-2.66543.0923-.33917.2031-.63666.3308-.867504.0638-.115345.1393-.227728.2294-.322346.0872-.091492.2149-.194409.3863-.240036l.2572.966376c.0712-.01896.0963-.05306.0805-.03652-.0128.01342-.0406.0483-.0783.11653-.0754.13629-.1607.35115-.241.64619-.1596.58602-.2814 1.42088-.2938 2.41525z" fill="#000"/></svg>