<svg fill="none" height="23" viewBox="0 0 27 23" width="27" xmlns="http://www.w3.org/2000/svg" xmlns:xlink="http://www.w3.org/1999/xlink"><filter id="a" color-interpolation-filters="sRGB" filterUnits="userSpaceOnUse" height="22" width="25.3056" x=".898438" y=".958496"><feFlood flood-opacity="0" result="BackgroundImageFix"/><feColorMatrix in="SourceAlpha" type="matrix" values="0 0 0 0 0 0 0 0 0 0 0 0 0 0 0 0 0 0 127 0"/><feOffset dy="1"/><feColorMatrix type="matrix" values="0 0 0 0 0 0 0 0 0 0 0 0 0 0 0 0 0 0 0.15 0"/><feBlend in2="BackgroundImageFix" mode="normal" result="effect1_dropShadow"/><feBlend in="SourceGraphic" in2="effect1_dropShadow" mode="normal" result="shape"/></filter><g filter="url(#a)"><path d="m9.39368 12.5052c-.50528-3.23343-1.96799-5.60808-7.32312-5.14532 2.0962 1.93281 2.99457 2.64072 1.79673 7.56812-.76226 5.2052 3.16701 6.5065 5.22693 6.5065h7.51368c1.1979 0 1.7696-.7623-1.0072-1.1979 1.4428-.5444 3.1307-1.1161 3.4029-3.3212.3267.4355 1.3067 2.314 3.3485 4.5191.49.0181 1.6552.0435 2.3957 0 .3811-.2723.5989-1.0073-.245-1.1979-.2813-.0363-.9256-.1197-1.2523-.1633-1.6334-2.0962-2.0146-2.7224-1.8784-5.962 1.4156-2.3956 2.2867-4.41019.98-6.1525.3539-.38113.4356-.5445 2.0146-.27224.5662-.06534.9982-.58985 1.1433-.84393-.4083-.20872-1.3502-.7187-1.8512-1.08895-.6805-.65336-.1089-1.71508-1.3067-2.15066.0454-.31758.147-1.0453.1906-1.41554.0268-.96526-.1841-.82141-.7627-.4267l-.0268.01831c-.2995.21778-.7895.65337-1.4429 1.25229-1.014.22906-2.2195 1.30335-2.3956 2.45011-.0545 4.41022-1.334 4.16521-3.2669 4.98191-3.0762 1.3067-4.95466 4.0563-4.6008 8.9293-1.76103-2.1858-.46185-4.8435-.65332-6.8875z" fill="#fff"/><path d="m9.39368 12.5052c-.50528-3.23343-1.96799-5.60808-7.32312-5.14532 2.0962 1.93281 2.99457 2.64072 1.79673 7.56812-.76226 5.2052 3.16701 6.5065 5.22693 6.5065h7.51368c1.1979 0 1.7696-.7623-1.0072-1.1979 1.4428-.5444 3.1307-1.1161 3.4029-3.3212.3267.4355 1.3067 2.314 3.3485 4.5191.49.0181 1.6552.0435 2.3957 0 .3811-.2723.5989-1.0073-.245-1.1979-.2813-.0363-.9256-.1197-1.2523-.1633-1.6334-2.0962-2.0146-2.7224-1.8784-5.962 1.4156-2.3956 2.2867-4.41019.98-6.1525.3539-.38113.4356-.5445 2.0146-.27224.5662-.06534.9982-.58985 1.1433-.84393-.4083-.20872-1.3502-.7187-1.8512-1.08895-.6805-.65336-.1089-1.71508-1.3067-2.15066.0454-.31758.147-1.0453.1906-1.41554.0268-.96526-.1841-.82141-.7627-.4267l-.0268.01831c-.2995.21778-.7895.65337-1.4429 1.25229-1.014.22906-2.2195 1.30335-2.3956 2.45011-.0545 4.41022-1.334 4.16521-3.2669 4.98191-3.0762 1.3067-4.95466 4.0563-4.6008 8.9293-1.76103-2.1858-.46185-4.8435-.65332-6.8875z" stroke="#000"/></g></svg>