<svg fill="none" height="16" viewBox="0 0 29 16" width="29" xmlns="http://www.w3.org/2000/svg" xmlns:xlink="http://www.w3.org/1999/xlink"><filter id="a" color-interpolation-filters="sRGB" filterUnits="userSpaceOnUse" height="15.0963" width="27.8625" x=".979004" y=".161621"><feFlood flood-opacity="0" result="BackgroundImageFix"/><feColorMatrix in="SourceAlpha" type="matrix" values="0 0 0 0 0 0 0 0 0 0 0 0 0 0 0 0 0 0 127 0"/><feOffset dy=".838709"/><feColorMatrix type="matrix" values="0 0 0 0 0 0 0 0 0 0 0 0 0 0 0 0 0 0 0.15 0"/><feBlend in2="BackgroundImageFix" mode="normal" result="effect1_dropShadow"/><feBlend in="SourceGraphic" in2="effect1_dropShadow" mode="normal" result="shape"/></filter><g filter="url(#a)"><path d="m10.4854 1.12347c4.4707-.552604 10.9524.69129 15.0473 4.91722.1509-.14567.4979-.45887.6789-.54629-.1132.54637.7919 1.00963 1.2445 2.29474-.9051 1.09274-.9051 1.52983-.4526 1.96692 3.7336 3.38744-4.1861 5.24514-4.7518 1.31124-.4525 0-1.6065-.3496-2.6021-1.74833 0 .65564 0 .65564.2262 1.42053.4526.2186.792 1.0928.792 1.5298 0 .3497.7543.6557 1.1314.765v.5463h-2.8285v-1.3113c0-.437-.8296-.9834-1.2445-1.202v.765c0 .3496.6034.5827.9051.6556v.5464h-2.0365c-.181-.1749-.3771-.7285-.4525-.9835v-2.29474c-.4526.21855-3.1679 1.09274-4.5255.43714-.3621.5245.1508 1.6026.4525 2.0761l.9051.2186v.5464h-2.1496c-.5431-.4371-1.28223-1.4934-1.58393-1.967-.15085-.2549-.45256-.9179-.45256-1.52979-.67882 0-1.47079.10928-2.26276 0-.09051.4371-.86739 1.20199-1.24452 1.52979v.9835c0 .2623.52798.6192.79197.7649v.4371h-2.48904c-.67883-.4371-.22627-3.1689 0-4.26165-.11313-.32782-.45255-1.31128-.56569-2.62256-.54306.43709-.75425.76491-.79196.87419l-.22628-.21863c1.42607-2.91999 3.93911-5.33874 8.48537-5.90068z" fill="#fff"/><path d="m27.1435 9.25754c.019.04601.0597.10758.1471.19271.9864.89715 1.3328 1.82015 1.0166 2.64335-.2978.7752-1.1165 1.2581-1.9656 1.4704-.8667.2168-1.8882.1874-2.7484-.1799-.7923-.3384-1.4518-.969-1.6937-1.9357-.354-.0705-.8087-.2449-1.2895-.5765.0844.1234.1545.2521.211.372.1492.3172.2548.6848.2653.9784.0021.0024.0046.005.0073.0079.0375.0389.1052.0901.2056.1471.1987.1129.4488.2055.6167.2542l.3026.0877v.3151.5463.4194h-.4193-2.8285-.4193v-.4194-.127h-1.9566-.1694l-.1219-.1177c-.0894-.0863-.1593-.1959-.2111-.2885-.0551-.0985-.1056-.2071-.1498-.3118-.0883-.2091-.1612-.4264-.2024-.5658l-.0173-.0583v-.0607-1.6924c-.3828.1227-.8894.2589-1.4292.3567-.4695.085-.9789.1438-1.467.1364-.3076-.0046-.6187-.0356-.9115-.1093.0093.113.0365.2434.0799.3854.0859.2807.2221.5639.3429.7752l.7349.1775.3209.0774v.3302.5464.4193h-.4194-2.1496-.1478l-.1151-.0927c-.3132-.252-.65916-.6597-.9521-1.0409-.29869-.3887-.56591-.7814-.7226-1.0273l-.00019.0001-.00706-.0119c-.13451-.2274-.38133-.7471-.47428-1.3148-.0871.00364-.17609.00804-.26801.01259-.13381.00662-.27384.01354-.42331.01889-.29192.01042-.60283.01362-.92164-.01039-.03088.05571-.06393.10901-.09697.15901-.1058.1599-.23659.3226-.37029.4744-.20896.2372-.43923.4638-.62506.6342v.7502c.00139.0019.00292.0041.00462.0064.02718.0368.07509.087.1446.146.13809.1174.3112.2278.42602.2912l.21673.1196v.2475.4371.4194h-.41936-2.48904-.12333l-.10369-.0668c-.1777-.1144-.28929-.2843-.36107-.4477-.07242-.1647-.11702-.3513-.14495-.5401-.05582-.3774-.0539-.8279-.02485-1.2768.05459-.8437.21028-1.75338.32421-2.3216-.10708-.31605-.30568-.9412-.44232-1.76366-.05254.06818-.07597.1094-.08335.12239-.00302.00532-.00335.0059-.00189.00166l-.21464.62194-.47316-.45717-.22627-.21862-.21918-.21177.13374-.27385c1.48033-3.03108 4.10662-5.55138 8.81069-6.132835 4.4595-.551213 10.8931.640285 15.1135 4.754285.0146-.01247.0293-.02493.0441-.0373.1254-.10505.2941-.23814.4377-.3075l.7654-.3696-.1724.83226c0 .0001 0 .00021-.0001.00036-.001.00434-.0077.03281.0413.12322.0558.10301.1473.22201.2891.40393l.0024.00314c.2706.34714.6467.8297.8967 1.53977l.0789.22395-.1515.18284c-.4506.54405-.6113.8541-.6462 1.03941-.0143.07604-.0054.12256.0107.16149zm-6.0702 2.94816c0 .0001.0004.0008.0015.0024-.0009-.0016-.0014-.0024-.0015-.0024zm-15.3845-.2196c-.00006 0 .00035.001.00143.003-.00082-.002-.00136-.003-.00143-.003z" stroke="#000" stroke-width=".838709"/></g></svg>