<svg fill="none" height="34" viewBox="0 0 34 34" width="34" xmlns="http://www.w3.org/2000/svg"><circle cx="17" cy="17" fill="#fff" fill-opacity=".4" r="16"/><circle cx="17" cy="17" r="16.5" stroke="#000" stroke-opacity=".1"/><g fill="#000" opacity=".6"><path d="m17.0241 12.9819h-.007c-1.0609 0-2.0783.4215-2.8284 1.1716-.7502.7502-1.1716 1.7676-1.1716 2.8284 0 1.0609.4214 2.0783 1.1716 2.8285.7501.7501 1.7675 1.1715 2.8284 1.1715 1.0609.001 2.0786-.4196 2.8294-1.1691s1.1732-1.7665 1.1741-2.8274c.0009-1.0608-.4196-2.0786-1.1691-2.8294s-1.7665-1.1731-2.8274-1.1741zm-.006 6c-.3956-.0004-.7821-.1182-1.1108-.3384-.3286-.2202-.5846-.5328-.7355-.8985-.1509-.3656-.19-.7678-.1124-1.1557.0777-.3879.2686-.744.5487-1.0234.185-.1859.4051-.3333.6474-.4335.2424-.1003.5023-.1514.7646-.1505.5304 0 1.0391.2107 1.4142.5858s.5858.8838.5858 1.4142c0 .5305-.2107 1.0392-.5858 1.4142-.3751.3751-.8838.5858-1.4142.5858z"/><path d="m25.4441 18.3998-.509-.295c.1086-.734.1086-1.48 0-2.214l.511-.293c.4591-.2657.7942-.7024.932-1.2147.1377-.5122.0669-1.0582-.197-1.5183l-1-1.733c-.2654-.4589-.7016-.7941-1.2134-.9322s-1.0575-.0679-1.5176.1952l-.512.295c-.5842-.4572-1.2286-.83172-1.915-1.11298v-.59c0-.53044-.2107-1.03914-.5858-1.41422-.3751-.37507-.8838-.58578-1.4142-.58578h-2c-.5305 0-1.0392.21071-1.4142.58578-.3751.37508-.5858.88378-.5858 1.41422v.6c-.6847.27688-1.3277.64708-1.911 1.09998l-.519-.3c-.4566-.2649-.9993-.3386-1.5099-.205-.51065.1335-.94778.4635-1.21614.918l-1 1.73c-.26585.459-.33851 1.0048-.20198 1.5173.13652.5125.47105.9498.92998 1.2157l.509.295c-.05414.3669-.08188.7372-.083 1.108.00007.3721.02647.7437.079 1.112l-.509.293c-.45972.2641-.7958.6998-.93437 1.2116-.13857.5117-.0683 1.0575.19537 1.5174l1 1.733c.13091.2277.3054.4275.5135.5877.2081.1603.44574.2781.69934.3465s.5182.0863.7787.0524c.2605-.0338.5118-.1186.7395-.2496l.512-.295c.5841.4576 1.2285.8325 1.915 1.114v.586c0 .5305.2107 1.0392.5858 1.4142.375.3751.8837.5858 1.4142.5858h2c.5304 0 1.0391-.2107 1.4142-.5858.3751-.375.5858-.8837.5858-1.4142v-.575c.6874-.2785 1.3329-.651 1.918-1.107l.511.3c.4589.2659 1.0047.3385 1.5172.202.5126-.1365.9499-.471 1.2158-.93l1-1.73c.1319-.2273.2178-.4784.2526-.739.0348-.2605.0179-.5254-.0497-.7794s-.1846-.4922-.3444-.701c-.1597-.2087-.359-.3839-.5865-.5156zm-2.593-2.8c.2252.9127.2252 1.8664 0 2.779-.0505.2097-.0319.4302.0532.6284.0851.1983.232.3637.4188.4716l1.122.652-1 1.729-1.123-.65c-.1864-.1078-.4026-.1526-.6164-.1278-.2139.0249-.414.1181-.5706.2658-.6813.6427-1.503 1.1177-2.4 1.387-.2065.0612-.3877.1874-.5167.3598s-.1989.3819-.1993.5972v1.294h-2v-1.293c.0004-.2155-.0688-.4253-.1972-.5983-.1285-.173-.3094-.2998-.5158-.3617-.8982-.2707-1.7203-.7485-2.4-1.395-.1568-.1477-.3568-.2412-.5706-.2668-.2139-.0255-.4303.0182-.6174.1248l-1.125.648-1.00004-1.733 1.12504-.647c.1873-.1075.3348-.2727.4204-.471.0857-.1983.1048-.4189.0546-.629-.11-.4541-.1661-.9197-.167-1.387.003-.4677.0604-.9335.171-1.388.0505-.2097.0318-.4302-.0533-.6284-.085-.1983-.2319-.3637-.4187-.4716l-1.12304-.65 1.00004-1.731 1.124.652c.019.011.041.01.06.02.0597.0272.122.0484.186.063.0649.0205.132.0336.2.039.02 0 .039.012.059.012.0458-.0054.0912-.0138.136-.025.0575-.0056.1144-.0163.17-.032.0568-.0239.1114-.0531.163-.087.0553-.0283.1079-.0618.157-.1.015-.013.034-.017.048-.031.6808-.6437 1.5026-1.1194 2.4-1.389.0168-.0077.0332-.0163.049-.026.0645-.0264.1259-.06.183-.1.0533-.0281.1035-.0616.15-.1.0454-.0448.0863-.0941.122-.147.038-.0488.0715-.101.1-.156.0234-.0559.0418-.1138.055-.173.0203-.0651.0341-.1321.041-.2 0-.018.011-.034.011-.053v-1.29398h2v1.29398c-.0005.2155.0687.4253.1972.5983.1284.173.3094.2999.5158.3617.8974.2723 1.7191.75 2.4 1.395.1562.148.3559.2416.5696.267s.4298-.0188.6164-.126l1.126-.647 1 1.733-1.125.647c-.1848.1087-.3297.2739-.4134.4713-.0837.1973-.1018.4163-.0516.6247z"/></g></svg>