<svg fill="none" height="24" viewBox="0 0 22 24" width="22" xmlns="http://www.w3.org/2000/svg" xmlns:xlink="http://www.w3.org/1999/xlink"><filter id="a" color-interpolation-filters="sRGB" filterUnits="userSpaceOnUse" height="22.8157" width="20.3737" x=".813232" y=".612305"><feFlood flood-opacity="0" result="BackgroundImageFix"/><feColorMatrix in="SourceAlpha" type="matrix" values="0 0 0 0 0 0 0 0 0 0 0 0 0 0 0 0 0 0 127 0"/><feOffset dy="1"/><feColorMatrix type="matrix" values="0 0 0 0 0 0 0 0 0 0 0 0 0 0 0 0 0 0 0.15 0"/><feBlend in2="BackgroundImageFix" mode="normal" result="effect1_dropShadow"/><feBlend in="SourceGraphic" in2="effect1_dropShadow" mode="normal" result="shape"/></filter><g filter="url(#a)"><path d="m14.8664 9.15144c-.1997-2.04029.0942-6.35626 2.8679-7.29795-.0785.19974-.1884.65916 0 .89886.1198-.30821.9916-.81325 1.4125-1.02725-.1498.31389-.458 1.03584-.4923 1.41251-.0428.47083 1.3484.81326 1.6908.94167s.5564.64205 0 .77046c-.4452.10273-1.1414.37096-1.4339.49223-.05.03567-.0728.80043.2354 3.57408-.3938 4.89665-2.4897 6.40625-3.4885 6.54895v5.0079l1.0701 1.2199h-1.2841c-.1926-.3495-.6335-1.2712-.8561-2.1615-.2225-.8903-.5635-.371-.7062 0v1.2841l.9844 1.1128h-1.284l-.5993-1.4553-.4708-4.0877c-.9631.1641-3.35152.3724-5.20062-.107-.19261.6777-.77046 2.0974-1.54092 2.3542.18834 1.5409 1.10575 2.611 1.54092 2.9534h-1.2841c-.39949-.5707-1.24985-2.1359-1.45531-3.8309-.41091.7362-1.08435 1.3341-1.36971 1.5409l-.1284 1.7764.74905.856h-1.45531c-.07847-.5279-.23542-1.6522-.23542-1.9261 0-.3424-.38522-.6206-.44943-.9631-.05136-.2739.27822-.799.44943-1.0273l.36383-4.7939c-.19975.0927-.70625.2739-1.13428.2568-.27822-1.7977.70625-2.8464 1.13428-3.0604.42804-.2141 1.11289-.0856 2.33278-.1712 1.21989-.0857 2.76081-.6207 5.00798-.92032 1.79773-.2397 4.10193-.21404 5.02933-.17124z" fill="#fff"/><path d="m14.8664 9.15144c-.1997-2.04029.0942-6.35626 2.8679-7.29795-.0785.19974-.1884.65916 0 .89886.1198-.30821.9916-.81325 1.4125-1.02725-.1498.31389-.458 1.03584-.4923 1.41251-.0428.47083 1.3484.81326 1.6908.94167s.5564.64205 0 .77046c-.4452.10273-1.1414.37096-1.4339.49223-.05.03567-.0728.80043.2354 3.57408-.3938 4.89665-2.4897 6.40625-3.4885 6.54895v5.0079l1.0701 1.2199h-1.2841c-.1926-.3495-.6335-1.2712-.8561-2.1615-.2225-.8903-.5635-.371-.7062 0v1.2841l.9844 1.1128h-1.284l-.5993-1.4553-.4708-4.0877c-.9631.1641-3.35152.3724-5.20062-.107-.19261.6777-.77046 2.0974-1.54092 2.3542.18834 1.5409 1.10575 2.611 1.54092 2.9534h-1.2841c-.39949-.5707-1.24985-2.1359-1.45531-3.8309-.41091.7362-1.08435 1.3341-1.36971 1.5409l-.1284 1.7764.74905.856h-1.45531c-.07847-.5279-.23542-1.6522-.23542-1.9261 0-.3424-.38522-.6206-.44943-.9631-.05136-.2739.27822-.799.44943-1.0273l.36383-4.7939c-.19975.0927-.70625.2739-1.13428.2568-.27822-1.7977.70625-2.8464 1.13428-3.0604.42804-.2141 1.11289-.0856 2.33278-.1712 1.21989-.0857 2.76081-.6207 5.00798-.92032 1.79773-.2397 4.10193-.21404 5.02933-.17124z" stroke="#000"/></g></svg>