<svg fill="none" height="28" viewBox="0 0 20 28" width="20" xmlns="http://www.w3.org/2000/svg" xmlns:xlink="http://www.w3.org/1999/xlink"><filter id="a" color-interpolation-filters="sRGB" filterUnits="userSpaceOnUse" height="26.7006" width="18.4377" x=".587891" y=".500488"><feFlood flood-opacity="0" result="BackgroundImageFix"/><feColorMatrix in="SourceAlpha" type="matrix" values="0 0 0 0 0 0 0 0 0 0 0 0 0 0 0 0 0 0 127 0"/><feOffset dy="1"/><feColorMatrix type="matrix" values="0 0 0 0 0 0 0 0 0 0 0 0 0 0 0 0 0 0 0.15 0"/><feBlend in2="BackgroundImageFix" mode="normal" result="effect1_dropShadow"/><feBlend in="SourceGraphic" in2="effect1_dropShadow" mode="normal" result="shape"/></filter><g filter="url(#a)"><path d="m13.4053 20.3352c-.0546.8805.1591 1.7427.2728 2.0637 2.0423.3169 1.5204 3.6962-.5456 3.2332-.9899-.5504-.9899-.5504-1.8415.0688h-5.86557c-2.42731 0-3.60313-3.1644-3.88763-4.7466-.927573-1.0456-.20461-1.5821.27282-1.7197 1.0367-.2201 1.15947-.7796 1.09127-1.0319-.13565-5.6132 4.8087-7.1541 7.29781-7.2229.6548-.2202.2728-1.14654 0-1.58221l-2.59174-3.78346c-1.20039-1.92612.36376-2.86626 1.29588-3.09556-.43651-1.32077.31828-1.559243.75024-1.51338 3.70572.50967 5.59812 4.68133 5.31992 8.04845 1.4186.49528 2.6827 1.85736 3.1374 2.47646.8184 1.5134.2046 2.7622 0 3.0955-.7093 1.1557-2.4781 1.3529-3.2738 1.3071 0 1.6818-.0382 3.2074-1.4323 4.4025z" fill="#fff"/><path d="m13.4053 20.3352c-.0546.8805.1591 1.7427.2728 2.0637 2.0423.3169 1.5204 3.6962-.5456 3.2332-.9899-.5504-.9899-.5504-1.8415.0688h-5.86557c-2.42731 0-3.60313-3.1644-3.88763-4.7466-.927573-1.0456-.20461-1.5821.27282-1.7197 1.0367-.2201 1.15947-.7796 1.09127-1.0319-.13565-5.6132 4.8087-7.1541 7.29781-7.2229.6548-.2202.2728-1.14654 0-1.58221l-2.59174-3.78346c-1.20039-1.92612.36376-2.86626 1.29588-3.09556-.43651-1.32077.31828-1.559243.75024-1.51338 3.70572.50967 5.59812 4.68133 5.31992 8.04845 1.4186.49528 2.6827 1.85736 3.1374 2.47646.8184 1.5134.2046 2.7622 0 3.0955-.7093 1.1557-2.4781 1.3529-3.2738 1.3071 0 1.6818-.0382 3.2074-1.4323 4.4025z" stroke="#000"/></g></svg>