<svg fill="none" height="18" viewBox="0 0 29 18" width="29" xmlns="http://www.w3.org/2000/svg" xmlns:xlink="http://www.w3.org/1999/xlink"><filter id="a" color-interpolation-filters="sRGB" filterUnits="userSpaceOnUse" height="17.0212" width="28.2718" x=".273926" y=".5"><feFlood flood-opacity="0" result="BackgroundImageFix"/><feColorMatrix in="SourceAlpha" type="matrix" values="0 0 0 0 0 0 0 0 0 0 0 0 0 0 0 0 0 0 127 0"/><feOffset dy="1"/><feColorMatrix type="matrix" values="0 0 0 0 0 0 0 0 0 0 0 0 0 0 0 0 0 0 0.15 0"/><feBlend in2="BackgroundImageFix" mode="normal" result="effect1_dropShadow"/><feBlend in="SourceGraphic" in2="effect1_dropShadow" mode="normal" result="shape"/></filter><g filter="url(#a)"><path d="m23.0429 2.44591c.3611-.14192.7776-.73799 1.0276-1.22052.2443 0 .4628.55823.5415.83735l.9303-.58188c.2753.23642.0915 1.29443 0 1.67466.1713.123.5943.55635.9164 1.3057.25 1.22052.5416 1.68887 1.5413 2.34171-.0972.59607-.5554.52511-1.3746.73799h-1.3192c-1.208.04258-1.8189.55349-2.8603 1.12118s-1.2358 2.9378-1.5968 3.8887c-.3611.9508-.7776 1.6604-.7221 2.0294.0556.369.2222.6671.7221.9367.4554-.1249.7914-.052.9025 0 .3999.0795.2083.4542 0 .4542-1.0368.0378-3.1492.0908-3.3047 0-.1944-.1136-.3194-.5535-.5138-.9793-.5276-.4257-.5693-.9225-.958-2.3275-.0278-1.3341-2.2356-1.178-3.152-.9367s-1.2636 1.178-1.4024 1.5895c-.1389.4116-.5693.6955-.5693 1.0503.0222.5449.4813.9272.7081 1.0502h.9581c.4666.1249.1944.551-.125.5535-1.2311.0094-3.74066.0227-3.92951 0-.3749-.0994-1.34687-1.3483-1.48572-2.3843.21105-.4087.27308-1.4098.2777-1.8592.18051-.8657-.91643-.9509-1.06917-1.3341-.84369 3.3644-3.83276 4.3461-5.24865 4.3854-1.692844-.011-1.203812-1.344-.61095-1.4618.44433-.1845 1.51731-.3264 1.94394-.8515 1.97172-2.4269.51376-7.59281 6.02623-10.61576 5.35973-2.497811 8.16453 1.30569 11.94133 1.30568.4166-.22707 1.4441-.56769 1.8051-.70961z" fill="#fff"/><path d="m24.0705 1.22539-.444-.229969.1398-.270035h.3042zm-2.8327 1.93013.2394.43901-.1119.06099h-.1275zm-11.94133-1.30568-.24041-.43841.01436-.00787.01485-.00692zm-6.02623 10.61576-.38806-.3153zm-1.94394.8515.19174.4618-.04575.019-.04858.0097zm.61095 1.4618.01389.4998-.00858.0003-.00858-.0001zm5.24865-4.3854-.48498-.1216c.05276-.2104.23518-.36276.45161-.37724.21643-.01447.41752.11224.49783.31374zm1.06917 1.3341-.49997-.0051.0005-.049.01-.0479zm-.2777 1.8592-.49557.0664-.02091-.156.07221-.1398zm1.48572 2.3843-.05969.4964-.03465-.0042-.03373-.0089zm3.92951 0 .0039.5zm.125-.5535v-.5h.0658l.0635.017zm-.9581 0v.5h-.1268l-.1115-.0605zm-.7081-1.0502-.4996.0203-.0004-.0102v-.0101zm5.1237-1.7031-.4819.1333-.0167-.0603-.0013-.0626zm.958 2.3275.314-.3891.0919.0741.049.1073zm.5138.9793-.2522.4317zm3.3047 0-.0182-.4997.0091-.0003h.0091zm0-.4542-.0975.4904-.0596-.0118-.055-.0258zm-.9025 0 .1322.4822-.1933.053-.1763-.0951zm-.7221-.9367.4945-.0744zm.7221-2.0294-.4675-.1775zm4.4571-5.00988-.0176-.49969.0088-.00031h.0088zm1.3192 0 .1257.48393-.0618.01607h-.0639zm1.3746-.73799.2734-.41865.2725.17793-.0524.32118zm-1.5413-2.34171.4594-.19748.0202.04703.0103.05014zm-.9164-1.3057-.2917.4061-.2731-.19616.0787-.32691zm0-1.67466-.2651-.42391.3118-.19506.2791.23966zm-.9303.58188.2651.42391-.5654.35365-.181-.6419zm-.0976-.60739c-.1366.26382-.3201.56191-.5246.81917-.1901.23906-.4534.51467-.7639.63673l-.3659-.93067c.0505-.01987.176-.11326.347-.32834.1565-.19689.3062-.43811.4195-.656819zm-1.2885 1.4559c-.1842.07239-.5562.20226-.8909.32635-.3603.13359-.6867.26363-.8578.35693l-.4787-.87802c.2454-.13377.6411-.28757.9889-.41654.3735-.13846.6958-.24987.8726-.31939zm-1.9881.74427c-1.0281 0-1.9746-.25918-2.8755-.58508-.4496-.16264-.897-.34547-1.3366-.52305-.4431-.17899-.881-.35385-1.3286-.50894-1.7614-.61028-3.6614-.91356-6.18942.26459l-.42241-.9064c2.83173-1.3196608 5.01403-.970095 6.93913-.30308.4741.16423.933.34773 1.3759.52664.4464.18033.8739.35496 1.3022.50988.8547.30919 1.6751.52544 2.5353.52544zm-11.70091-1.36727c-2.60424 1.42812-3.55397 3.34214-4.10103 5.23203-.13849.47843-.25094.95511-.35831 1.42776-.10634.46816-.20926.93969-.32514 1.38586-.2308.8885-.53075 1.7536-1.0941 2.447l-.77613-.6306c.4225-.52.6797-1.2107.90235-2.0678.11083-.42673.20871-.87547.31786-1.35597.10813-.47601.22587-.97637.3729-1.4843.59501-2.05554 1.67253-4.23597 4.58077-5.8308zm-5.87858 10.49265c-.31278.385-.8152.5874-1.19702.7131-.20202.0665-.40445.1216-.56917.1676-.17648.0494-.29618.085-.37408.1173l-.38348-.9235c.14426-.0599.3253-.1113.48831-.1568.17477-.0489.35057-.0968.52565-.1544.37241-.1226.61981-.2538.73366-.3939zm-2.2346 1.0267c.00871-.0018-.03386.0086-.08536.0796-.04855.0669-.06606.1361-.06419.179.00105.0242.00517.0504.05727.0869.06936.0487.24273.1234.60909.1258l-.00654 1c-.48006-.0031-.88037-.0991-1.176912-.3072-.313794-.2202-.467771-.5367-.481958-.8619-.013367-.3064.096733-.5932.253724-.8097.154031-.2124.394908-.4128.700056-.4734zm.49965.4715c1.27989-.0355 4.00718-.9352 4.77756-4.0072l.96996.2433c-.917 3.6566-4.16785 4.7204-5.71974 4.7635zm5.727-4.0707c-.02843-.0713-.0672-.0678.05606.0087.05008.031.10518.0618.17932.1039.06937.0393.15166.0866.23373.1404.16012.1049.3599.2596.49713.4929.14742.2506.19655.5463.12795.8754l-.97895-.2041c.02165-.1039.00136-.1434-.01091-.1642-.02245-.0382-.07261-.091-.18325-.1635-.05331-.035-.11161-.0688-.17936-.1073-.06298-.0357-.14153-.0795-.21294-.1238-.11973-.0743-.35289-.2252-.4577-.4881zm1.10469 1.5244c-.00247.2395-.01997.6203-.06491.9986-.04213.3548-.11676.7909-.26851 1.0848l-.88853-.4588c.05931-.1149.12122-.3836.16402-.7439.04-.3368.05582-.6811.05798-.891zm-.28212 1.7876c.05502.4105.28725.9073.57293 1.3296.13963.2065.28132.3791.40149.5002.06026.0608.10916.1026.1443.1282.04194.0306.03963.02-.00048.0094l-.25615.9666c-.13383-.0355-.24853-.1068-.33205-.1676-.09031-.0658-.17994-.1459-.26569-.2324-.17186-.1733-.35213-.3963-.51971-.6441-.32875-.4859-.65194-1.1316-.73577-1.7571zm1.04986 1.9543c-.00687-.0009.02395.0014.12293.0034.08574.0017.20144.003.34111.0039.27897.0018.64717.002 1.04917.0011.8036-.0016 1.7378-.0073 2.3528-.012l.0077 1c-.6162.0047-1.5523.0104-2.3585.012-.4029.0009-.7744.0007-1.05759-.0011-.26043-.0017-.49338-.0044-.57701-.0145zm3.86601-.0036c-.0296.0002-.0466.0093-.0544.0145-.0052.0035-.029.0201-.0479.0668-.0224.0552-.0366.161.0265.2644.0554.0908.12.0957.0753.0838l.2586-.966c.1886.0505.3941.1555.5198.3614.1332.2185.1185.4544.0465.6321-.1277.315-.4604.5402-.8167.543zm.1288.4465h-.9581v-1h.9581zm-1.1964-.0605c-.1672-.0907-.3905-.2579-.5801-.4905-.1915-.2351-.3725-.5673-.3893-.9789l.9992-.0407c.0054.1334.065.2648.1653.3879.1023.1254.222.2108.2816.2432zm-.9698-1.4897c0-.3677.2212-.6552.3324-.8037.148-.1974.2257-.2954.2631-.4064l.9475.3197c-.1014.3006-.3083.5503-.4103.6864-.1387.185-.1327.2168-.1327.204zm.5955-1.2101c.0724-.2147.2119-.6073.4723-.9835.2635-.3803.6691-.7698 1.2766-.9297l.2546.967c-.309.0814-.5351.2809-.7091.5321-.1769.2554-.2804.5369-.3469.7338zm1.7489-1.9132c.5051-.133 1.3558-.2433 2.1086-.1337.3758.0548.7763.1711 1.0957.4111.341.2562.5645.6369.5748 1.1324l-.9997.0208c-.0036-.1715-.0665-.2716-.1758-.3537-.131-.0985-.345-.1782-.6391-.221-.5872-.0855-1.2986.0029-1.7099.1111zm3.7611 1.2869c.2043.7382.299 1.1657.4165 1.4974.1028.2906.2.4341.3737.5743l-.6279.7782c-.3539-.2855-.5414-.6033-.6885-1.0188-.1325-.3743-.253-.8977-.4375-1.5645zm.9311 2.2531c.0532.1166.1008.2323.1429.3351.0435.1063.0796.1952.1151.2741.0359.0799.0631.1307.0834.1616.0233.0353.0165.0118-.0303-.0156l-.5044.8635c-.144-.0841-.2393-.2052-.3002-.2976-.0638-.0968-.1165-.2039-.1604-.3015-.0444-.0985-.0881-.2065-.1288-.3059-.0421-.103-.083-.202-.127-.2983zm.3111.7552c-.0714-.0417-.1301-.0483-.1079-.0441.0032.0006.0177.0029.0476.0058.0588.0056.1456.0105.2595.014.2261.0069.5292.0076.8656.0044.6712-.0066 1.4537-.0292 1.9695-.048l.0364.9993c-.521.0191-1.313.0419-1.9961.0486-.3408.0033-.6597.0027-.9059-.0048-.1222-.0037-.234-.0094-.3246-.0181-.0447-.0043-.0926-.0101-.1379-.0187-.0264-.0049-.1197-.0218-.2106-.0749zm3.0525-.0682c-.0974 0-.1598.0414-.1877.0661-.0284.0252-.0576.0644-.0714.124-.0158.0684-.01.1715.0583.2618.0623.0824.1276.0892.1033.0843l.195-.9808c.1756.0349.3669.1183.4993.2933.1383.1829.1582.3946.1184.5666-.0377.1632-.1289.301-.2393.399-.1099.0974-.2744.1857-.4759.1857zm-.2121.4986c.0174.0082-.0281-.0134-.1394-.02-.1023-.006-.2455.0019-.4188.0494l-.2645-.9644c.5513-.1511 1.0118-.0807 1.2469.0294zm-.9278-.0127c-.2968-.1601-.5293-.3473-.6961-.5791-.169-.2348-.2467-.4823-.283-.7232l.9889-.1489c.0192.1281.0526.2141.1057.288.0554.0769.1561.1735.3592.2831zm-.9791-1.3023c-.0295-.1959.0078-.3901.0512-.5469.0454-.164.1133-.3402.1863-.516.1549-.3725.3333-.749.5115-1.2185l.9349.3549c-.1828.4814-.3931.9351-.523 1.2474-.0692.1666-.1176.2965-.146.3989-.0303.1098-.0243.1427-.026.1313zm.749-2.2814c.0762-.2007.1489-.4931.2359-.8653.0838-.3585.1779-.7768.2941-1.1828.116-.40527.2608-.82368.4558-1.18643.1927-.35867.4585-.70816.8392-.91568l.4786.87802c-.14.07632-.2891.23598-.437.51108-.1456.27103-.2672.61101-.3752.98811-.1077.3763-.195.7643-.2817 1.1353-.0835.3574-.1705.7179-.2748.9926zm1.825-4.15021c.9687-.52807 1.7219-1.13392 3.082-1.18186l.0353.99938c-1.056.03722-1.5246.4532-2.6387 1.0605zm3.0996-1.18217h1.3192v1h-1.3192zm1.1934.01607c.2205-.0573.4177-.09568.5725-.12727.1649-.03367.2661-.05692.3403-.08395.067-.02435.0738-.03882.0684-.03256-.0066.00764.0118-.0056.0257-.09075l.987.16093c-.0347.21288-.11.4143-.2555.58294-.1442.16725-.3214.26011-.4836.31914-.1548.05634-.3279.09252-.4823.12405-.1646.0336-.3319.06619-.521.11533zm1.227.16458c-.5243-.34237-.9132-.66799-1.1972-1.10346-.2814-.43137-.4318-.9282-.5605-1.55659l.9797-.20061c.1212.59214.2415.93975.4184 1.21089.1742.26704.4309.50201.9064.81248zm-1.7272-2.56288c-.2921-.67947-.6625-1.0351-.7488-1.09707l.5834-.8122c.2562.18404.7319.69509 1.0841 1.51432zm-.9432-1.62014c.0411-.17097.1042-.50174.1248-.80784.0104-.15445.0083-.28136-.0045-.37021-.0167-.11517-.0365-.06609.04-.00033l.6516-.75862c.2142.18397.2746.45395.298.61554.0273.1879.0252.39358.0126.58072-.0253.37707-.0999.76543-.1503.97469zm.7512-1.13378-.9303.58188-.5303-.84782.9304-.58188zm-1.6767.29363c-.0328-.11632-.0947-.2881-.1665-.41988-.0366-.06734-.0631-.10036-.0726-.10994-.0166-.01683.0449.05681.1789.05681v-1.000004c.2561 0 .4366.143411.5321.239978.1027.103806.1815.227786.2399.334906.1182.21711.2048.46401.2507.6268z" fill="#000"/></g><path d="m26.7636 5.62134c-1.3632.42568-1.8709.66277-2.6702.49881-.7992-.16394-.1976-1.27495 1.4086-1.7765.6694-.20903 1.2616.6205 1.2616 1.27769z" fill="#000"/></svg>