<svg fill="none" height="24" viewBox="0 0 24 24" width="24" xmlns="http://www.w3.org/2000/svg" xmlns:xlink="http://www.w3.org/1999/xlink"><filter id="a" color-interpolation-filters="sRGB" filterUnits="userSpaceOnUse" height="22.4557" width="23.9572" x=".020996" y=".98584"><feFlood flood-opacity="0" result="BackgroundImageFix"/><feColorMatrix in="SourceAlpha" type="matrix" values="0 0 0 0 0 0 0 0 0 0 0 0 0 0 0 0 0 0 127 0"/><feOffset dy="1"/><feColorMatrix type="matrix" values="0 0 0 0 0 0 0 0 0 0 0 0 0 0 0 0 0 0 0.15 0"/><feBlend in2="BackgroundImageFix" mode="normal" result="effect1_dropShadow"/><feBlend in="SourceGraphic" in2="effect1_dropShadow" mode="normal" result="shape"/></filter><g filter="url(#a)"><path d="m17.1939 4.55713.4196-1.27172c1.6404 1.78052 1.03 3.13697 2.3651 4.66324.9537.89037 3.4333 2.37395 3.4333 4.79035-.1781.1271-.7707.4324-1.7167.6359 1.6403.4663 1.9455 1.9077 1.7167 2.6283-.1831.5766-.763.2403-1.03 0 .0508-.3108-.0153-.9496-.6867-1.0174-.8392-.0848-2.594 2.6708-5.722 2.0349 0 .5511.8774 1.9925-.763 3.9001h2.8992v1.0175c-4.4377.0141-13.50394-.0085-14.26688-.212-6.48494-5.0448-2.25065-9.5808 2.32695-13.77765 1.7929-1.52604 1.14441-1.73824.49591-2.11977-2.74656-1.2718-2.59398-1.73813-2.55583-2.11966.03815-.38154 1.29699-1.52605 4.73019-2.20434 3.66206 1.44137 5.49316 3.56103 2.09806 8.52102.8011.1272 3.624-.84785 5.0354-2.07725-.5799-1.18701-.0636-3.60342.267-4.66324z" fill="#fff"/><path d="m17.1939 4.55713.4196-1.27172c1.6404 1.78052 1.03 3.13697 2.3651 4.66324.9537.89037 3.4333 2.37395 3.4333 4.79035-.1781.1271-.7707.4324-1.7167.6359 1.6403.4663 1.9455 1.9077 1.7167 2.6283-.1831.5766-.763.2403-1.03 0 .0508-.3108-.0153-.9496-.6867-1.0174-.8392-.0848-2.594 2.6708-5.722 2.0349 0 .5511.8774 1.9925-.763 3.9001h2.8992v1.0175c-4.4377.0141-13.50394-.0085-14.26688-.212-6.48494-5.0448-2.25065-9.5808 2.32695-13.77765 1.7929-1.52604 1.14441-1.73824.49591-2.11977-2.74656-1.2718-2.59398-1.73813-2.55583-2.11966.03815-.38154 1.29699-1.52605 4.73019-2.20434 3.66206 1.44137 5.49316 3.56103 2.09806 8.52102.8011.1272 3.624-.84785 5.0354-2.07725-.5799-1.18701-.0636-3.60342.267-4.66324z" stroke="#000"/></g></svg>